<svg id="Calque_1" data-name="Calque 1" xmlns="http://www.w3.org/2000/svg" viewBox="0 0 62.79 56.78"><defs><style>.cls-1{fill:#e53138;}</style></defs><path class="cls-1" d="M419.89,270.63c-16.43.9-29.44,13.06-29.44,27.92A26,26,0,0,0,397.28,316h23.85c.92,0,11-.46,11-10.05s-9.92-10.07-11-10.09h-.09a5.06,5.06,0,0,1,0-10.11h.34c2.78.08,21.82,1.32,21.82,20.23,0,9.35-4.79,14.36-9.91,17v0c11.59-4.11,19.92-12.68,19.92-24.47A26.11,26.11,0,0,0,446,280.66H421.4c-.93,0-11,.46-11,10s9.91,10.07,11,10.09h.09a5.06,5.06,0,0,1,0,10.11h-.34c-2.78-.08-21.83-1.32-21.83-20.22,0-16.86,15.55-19.45,20.61-19.89Z" transform="translate(-390.45 -270.63)"/><path class="cls-1" d="M423.18,327.34a.65.65,0,1,1,.63-.65A.63.63,0,0,1,423.18,327.34Z" transform="translate(-390.45 -270.63)"/><path class="cls-1" d="M432.25,325.26h-3a1.24,1.24,0,0,0,1.32,1.19,2.47,2.47,0,0,0,1.23-.33l.29.77a3,3,0,0,1-1.72.52,2.16,2.16,0,0,1-2.19-1.47,2.73,2.73,0,0,1-2.56,1.47,3.19,3.19,0,0,1-1.56-.34v-6.83h1.2v2.38a3.22,3.22,0,0,1,.92-.15,2.16,2.16,0,0,1,2.07,1.31,2,2,0,0,1,1.92-1.31,2.16,2.16,0,0,1,2.12,2.44Zm-6.36-1.78a1.62,1.62,0,0,0-.67.15v2.71a1.74,1.74,0,0,0,.59.09,1.44,1.44,0,0,0,1.38-1.56A1.3,1.3,0,0,0,425.89,323.48Zm4.21-.11a1,1,0,0,0-.93,1H431A1,1,0,0,0,430.1,323.37Z" transform="translate(-390.45 -270.63)"/><path class="cls-1" d="M399.87,318.33a5.94,5.94,0,0,1,1.35-.12c1.44,0,2.43.57,2.43,1.87s-.93,1.91-2.39,1.91h-1.39Zm-1.37,9h1.37V323h1.28c1.24,0,1.82.57,2.14,2a11.77,11.77,0,0,0,.69,2.4h1.41a18.31,18.31,0,0,1-.8-2.76,2.58,2.58,0,0,0-1.55-2v0a2.68,2.68,0,0,0,2-2.56,2.44,2.44,0,0,0-.83-1.91,4.52,4.52,0,0,0-3.08-.84,14.42,14.42,0,0,0-2.62.23Z" transform="translate(-390.45 -270.63)"/><path class="cls-1" d="M409.16,327.34l-3.48-10.07h1.5l1.64,5c.44,1.36.84,2.6,1.13,3.77h0c.3-1.17.73-2.44,1.21-3.75l1.79-5h1.47l-3.79,10.07Z" transform="translate(-390.45 -270.63)"/><path class="cls-1" d="M415.86,323.16l1-2.92c.2-.61.37-1.24.52-1.82h0c.16.58.32,1.18.54,1.84l1.05,2.9Zm3.47,1,1.13,3.17h1.46l-3.61-10.07h-1.65l-3.59,10.07h1.41l1.1-3.17Z" transform="translate(-390.45 -270.63)"/></svg>